<?xml version="1.0" standalone="no"?>
<!DOCTYPE svg PUBLIC "-//W3C//DTD SVG 1.1//EN" "http://www.w3.org/Graphics/SVG/1.1/DTD/svg11.dtd">
<svg xmlns="http://www.w3.org/2000/svg" xmlns:xlink="http://www.w3.org/1999/xlink" width="375" zoomAndPan="magnify" viewBox="0 0 375 374.999991" height="375" preserveAspectRatio="xMidYMid meet" version="1.0"><defs><g/><clipPath id="1f2d34a3f3"><path d="M 125.289062 191 L 249.789062 191 L 249.789062 205.296875 L 125.289062 205.296875 Z M 125.289062 191 " clip-rule="nonzero"/></clipPath><clipPath id="7f5a612e9f"><path d="M 138 128.046875 L 179 128.046875 L 179 194 L 138 194 Z M 138 128.046875 " clip-rule="nonzero"/></clipPath></defs><path fill="#ffffff" d="M 192.875 174.46875 L 188.03125 174.46875 L 188.03125 179.3125 L 192.875 179.3125 Z M 186.957031 174.46875 L 182.113281 174.46875 L 182.113281 179.3125 L 186.957031 179.3125 Z M 192.875 168.550781 L 188.03125 168.550781 L 188.03125 173.394531 L 192.875 173.394531 Z M 186.957031 173.394531 L 182.113281 173.394531 L 182.113281 168.550781 L 186.957031 168.550781 L 186.957031 173.394531 " fill-opacity="1" fill-rule="nonzero"/><g clip-path="url(#1f2d34a3f3)"><path fill="#ffffff" d="M 186.542969 197.253906 C 211.167969 197.253906 232.574219 201.195312 249.695312 205.339844 C 237.242188 197.289062 213.714844 191.859375 186.738281 191.859375 C 160.820312 191.859375 138.082031 196.871094 125.292969 204.410156 C 141.839844 200.824219 163.820312 197.253906 186.542969 197.253906 " fill-opacity="1" fill-rule="nonzero"/></g><path fill="#ffffff" d="M 201.769531 144.382812 C 201.582031 144.921875 201.636719 145.523438 201.945312 146.003906 C 202.398438 146.71875 203.257812 146.933594 203.867188 146.808594 C 204.207031 146.742188 204.371094 146.585938 205.355469 145.632812 C 206.742188 144.277344 206.941406 144.070312 207.339844 143.832031 C 207.753906 143.585938 208.394531 143.300781 209.328125 143.210938 C 208.933594 143.914062 208.539062 144.617188 208.148438 145.320312 C 208.734375 145.144531 209.46875 144.984375 210.320312 144.949219 C 212.300781 144.859375 213.863281 145.460938 214.722656 145.878906 C 213.953125 145.910156 212.835938 146.027344 211.558594 146.4375 C 210.492188 146.777344 208.3125 147.476562 206.660156 149.476562 C 204.628906 151.9375 204.660156 154.84375 204.671875 156.050781 C 204.699219 158.402344 205.429688 160.214844 205.914062 161.203125 C 206.304688 160.351562 206.703125 159.265625 206.96875 157.976562 C 207.417969 155.789062 207.289062 153.910156 207.09375 152.640625 C 207.328125 152.78125 207.660156 153.011719 207.960938 153.386719 C 208.472656 154.015625 208.601562 154.683594 208.644531 155 C 209.328125 153.054688 210.007812 151.109375 210.691406 149.167969 C 210.695312 149.226562 210.785156 150.042969 211.496094 150.40625 C 211.546875 150.433594 212.117188 150.714844 212.675781 150.46875 C 213.234375 150.222656 213.304688 149.660156 213.792969 148.792969 C 214.03125 148.375 214.414062 147.796875 215.035156 147.179688 C 214.910156 147.699219 214.785156 148.214844 214.664062 148.734375 C 215.011719 148.566406 215.363281 148.402344 215.714844 148.234375 C 214.144531 151.5 213.054688 154.375 212.304688 156.609375 C 211.894531 157.824219 210.230469 162.882812 209.140625 170.011719 C 208.816406 172.128906 208.539062 173.9375 208.394531 176.460938 C 207.996094 183.480469 209.011719 189.117188 209.816406 192.410156 C 212.0625 192.6875 214.269531 193.003906 216.429688 193.359375 C 215.371094 190.308594 214.375 186.746094 213.667969 182.726562 C 213.214844 180.152344 212.414062 175.421875 212.675781 169.328125 C 212.875 164.714844 213.777344 157.246094 217.578125 148.609375 C 217.789062 149.074219 218.042969 149.773438 218.136719 150.65625 C 218.214844 151.410156 218.152344 152.050781 218.074219 152.515625 C 218.589844 152.019531 219.109375 151.523438 219.625 151.027344 C 219.4375 152.351562 219.253906 153.675781 219.066406 155 C 219.664062 155.019531 220.265625 155.039062 220.863281 155.058594 C 220.332031 155.894531 219.777344 156.867188 219.253906 157.976562 C 218.726562 159.089844 218.320312 160.136719 218.011719 161.078125 C 218.515625 160.960938 219.199219 160.746094 219.933594 160.332031 C 220.769531 159.863281 221.359375 159.316406 221.734375 158.90625 C 220.78125 160.390625 220.027344 161.546875 219.5625 162.257812 C 218.300781 164.183594 217.851562 164.828125 217.453125 165.917969 C 217.015625 167.101562 216.878906 168.144531 216.832031 168.832031 C 217.882812 168.195312 219.4375 167.085938 220.863281 165.296875 C 221.648438 164.316406 222.886719 162.734375 223.472656 160.394531 C 224.394531 156.699219 223.074219 153.589844 222.539062 152.332031 C 221.34375 149.507812 219.515625 147.679688 218.320312 146.683594 C 218.941406 146.789062 220.21875 147.09375 221.421875 148.113281 C 223.21875 149.628906 223.578125 151.65625 223.65625 152.207031 C 223.90625 151.8125 224.152344 151.421875 224.402344 151.027344 C 225.066406 153.007812 225.691406 155.382812 226.078125 158.101562 C 226.300781 159.679688 226.410156 161.15625 226.449219 162.503906 C 226.519531 162.050781 226.714844 161.160156 227.378906 160.273438 C 227.921875 159.539062 228.546875 159.121094 228.929688 158.90625 C 228.621094 159.960938 228.304688 161.453125 228.308594 163.25 C 228.316406 165.398438 228.777344 167.136719 229.179688 168.273438 C 229.65625 167.398438 230.273438 166.089844 230.730469 164.429688 C 231.21875 162.640625 232.117188 159.199219 230.789062 155.183594 C 230.46875 154.203125 229.359375 150.996094 226.136719 148.546875 C 224.417969 147.234375 222.71875 146.617188 221.609375 146.3125 C 222.457031 146.332031 223.304688 146.355469 224.152344 146.375 C 224.132812 145.859375 224.113281 145.339844 224.089844 144.824219 C 224.546875 145.097656 225.085938 145.480469 225.640625 146.003906 C 226.25 146.574219 226.695312 147.144531 227.007812 147.617188 C 227.070312 146.5 227.128906 145.382812 227.191406 144.265625 C 227.425781 145.050781 227.746094 145.933594 228.183594 146.871094 C 228.796875 148.179688 229.484375 149.253906 230.109375 150.097656 C 230.5625 149.375 231.019531 148.648438 231.472656 147.925781 C 231.75 148.292969 232.078125 148.832031 232.28125 149.539062 C 232.773438 151.242188 232.191406 152.707031 231.96875 153.199219 C 232.59375 152.636719 233.449219 151.742188 234.203125 150.46875 C 235.015625 149.09375 235.902344 147.59375 235.566406 145.941406 C 235.132812 143.78125 232.878906 142.667969 232.09375 142.28125 C 229.300781 140.902344 226.46875 141.5625 224.710938 141.96875 C 222.453125 142.496094 220.765625 143.425781 219.75 144.078125 C 219.871094 143.898438 222.023438 140.535156 220.367188 137.132812 C 220.257812 136.90625 219.144531 134.703125 216.648438 133.84375 C 213.808594 132.867188 210.375 134.042969 208.085938 136.820312 C 209.367188 136.65625 210.648438 136.492188 211.933594 136.324219 C 211.765625 136.699219 211.601562 137.070312 211.433594 137.441406 C 212.304688 137.453125 213.59375 137.578125 215.035156 138.125 C 216.0625 138.515625 216.867188 139.003906 217.453125 139.425781 C 216.5625 139.695312 215.675781 139.964844 214.785156 140.234375 C 215.207031 140.46875 215.671875 140.773438 216.152344 141.164062 C 217.085938 141.933594 217.722656 142.753906 218.136719 143.398438 C 216.691406 142.777344 214.601562 142.03125 211.996094 141.597656 C 210.539062 141.359375 208.121094 140.976562 205.046875 141.410156 C 202.441406 141.78125 200.394531 142.070312 198.65625 143.707031 C 196.878906 145.378906 196.394531 147.546875 196.238281 148.609375 C 196.929688 148.46875 197.992188 148.164062 199.089844 147.429688 C 200.566406 146.441406 201.367188 145.175781 201.769531 144.382812 " fill-opacity="1" fill-rule="nonzero"/><g clip-path="url(#7f5a612e9f)"><path fill="#ffffff" d="M 141.128906 147.074219 C 141.148438 146.007812 140.730469 145.53125 140.6875 144.539062 C 140.65625 143.890625 140.78125 142.933594 141.566406 141.734375 C 141.605469 142.503906 141.640625 143.273438 141.675781 144.046875 C 142.324219 143.792969 143.28125 143.320312 144.210938 142.449219 C 145.625 141.125 146.1875 139.617188 146.410156 138.871094 C 146.210938 139.824219 146.007812 140.78125 145.804688 141.734375 C 146.980469 141.089844 148.15625 140.449219 149.328125 139.808594 C 149.019531 140.230469 148.707031 140.648438 148.394531 141.074219 C 149.328125 141.183594 150.265625 141.292969 151.203125 141.402344 C 148.914062 142.515625 144.882812 144.921875 142.886719 149.441406 C 140.027344 155.925781 142.769531 163.585938 143.273438 163.535156 C 143.484375 163.511719 143.660156 162.125 143.328125 155 C 143.84375 155.734375 144.355469 156.46875 144.871094 157.203125 C 145.40625 156.421875 146.097656 155.21875 146.523438 153.625 C 147.132812 151.34375 146.898438 149.40625 146.6875 148.339844 C 146.800781 148.304688 147.457031 148.121094 148.117188 148.503906 C 148.835938 148.917969 148.980469 149.667969 149 149.773438 C 149.058594 148.839844 149.289062 147.265625 150.210938 145.585938 C 150.796875 144.523438 151.480469 143.746094 152.027344 143.21875 C 151.175781 146.582031 150.679688 149.394531 150.375 151.421875 C 149.917969 154.488281 149.953125 155.445312 150.15625 156.378906 C 150.816406 159.417969 153.105469 161.371094 154.449219 162.324219 C 153.679688 160.285156 152.910156 158.25 152.136719 156.210938 C 152.835938 156.507812 153.53125 156.800781 154.230469 157.09375 C 154.234375 156.277344 154.167969 155.238281 153.898438 154.066406 C 153.574219 152.648438 153.070312 151.515625 152.632812 150.707031 C 152.90625 150.742188 153.535156 150.867188 154.121094 151.367188 C 154.507812 151.699219 154.722656 152.070312 154.835938 152.304688 C 155.035156 151.230469 155.203125 149.753906 155.054688 148.007812 C 154.902344 146.1875 154.460938 144.703125 154.0625 143.660156 C 154.542969 144.671875 155.019531 145.679688 155.496094 146.6875 C 155.789062 146.265625 156.082031 145.84375 156.375 145.421875 C 157.71875 148.199219 159.117188 151.628906 160.230469 155.660156 C 160.921875 158.160156 161.964844 162.027344 162.210938 167.167969 C 162.261719 168.183594 162.429688 172.371094 161.441406 178.179688 C 160.816406 181.863281 159.550781 187.203125 156.769531 193.40625 C 159.203125 193 161.691406 192.644531 164.230469 192.34375 C 165.273438 188.855469 166.132812 184.824219 166.507812 180.324219 C 166.617188 178.964844 167.085938 172.734375 165.734375 164.746094 C 165.316406 162.273438 164.585938 158.085938 162.542969 152.910156 C 161.023438 149.058594 159.296875 145.972656 157.863281 143.714844 C 158.285156 143.789062 158.707031 143.863281 159.128906 143.9375 C 159.039062 143.328125 158.945312 142.726562 158.855469 142.117188 C 159.441406 142.796875 160.0625 143.582031 160.671875 144.484375 C 161.558594 145.808594 162.21875 147.070312 162.707031 148.175781 C 163.054688 146.910156 163.40625 145.644531 163.753906 144.375 C 163.847656 145.265625 164.003906 146.246094 164.25 147.292969 C 164.652344 149.015625 165.195312 150.492188 165.734375 151.699219 C 165.722656 151.492188 165.691406 150.601562 166.339844 149.882812 C 166.652344 149.539062 167 149.363281 167.222656 149.277344 C 167.367188 150.355469 167.5 151.472656 167.609375 152.632812 C 167.738281 154.046875 167.828125 155.40625 167.882812 156.707031 C 168.441406 155.519531 169.242188 153.414062 169.257812 150.707031 C 169.265625 149.8125 169.277344 147.464844 168.214844 145.367188 C 165.738281 140.484375 158.949219 139.953125 158.359375 139.917969 C 159.335938 139.710938 160.484375 139.539062 161.773438 139.476562 C 163.449219 139.394531 164.921875 139.515625 166.121094 139.695312 C 165.84375 139.359375 165.292969 138.78125 164.414062 138.375 C 163.703125 138.046875 163.0625 137.957031 162.652344 137.933594 C 164.550781 137.535156 165.636719 137.890625 166.285156 138.320312 C 166.726562 138.613281 167.078125 139.011719 168.101562 139.695312 C 168.457031 139.933594 170.660156 141.636719 172.53125 142.449219 C 171.984375 141.183594 172.34375 139.917969 171.792969 138.648438 C 172.644531 139.636719 173.402344 140.453125 173.992188 141.074219 C 175.703125 142.863281 176.351562 143.347656 177.078125 143.714844 C 177.816406 144.09375 178.488281 144.277344 178.949219 144.375 C 178.359375 142.78125 177.136719 140.207031 174.597656 138.042969 C 173.894531 137.441406 172.671875 136.421875 170.800781 135.734375 C 168.179688 134.765625 165.941406 135.066406 163.421875 135.402344 C 161.691406 135.632812 159.1875 136.144531 156.320312 137.382812 C 156.304688 137.140625 156.320312 136.769531 156.542969 136.449219 C 156.96875 135.828125 157.785156 135.953125 158.910156 135.457031 C 159.269531 135.296875 159.785156 135.019531 160.339844 134.523438 C 159 134.171875 157.660156 133.824219 156.320312 133.476562 C 156.894531 133.308594 157.578125 133.160156 158.359375 133.089844 C 160.066406 132.941406 161.488281 133.238281 162.433594 133.53125 C 162.222656 133.148438 161.890625 132.648438 161.386719 132.152344 C 160.71875 131.5 160.03125 131.140625 159.570312 130.941406 C 160.457031 130.941406 161.636719 131.042969 162.929688 131.492188 C 165.765625 132.480469 167.300781 134.5 167.332031 134.464844 C 167.371094 134.425781 165.96875 131.253906 162.101562 129.527344 C 160.316406 128.730469 157.417969 128.046875 155.605469 129.070312 C 154.558594 129.664062 154.105469 130.675781 153.789062 131.382812 C 152.578125 134.085938 153.433594 136.804688 153.789062 137.769531 C 151.882812 136.980469 150.203125 136.566406 148.945312 136.339844 C 146.832031 135.953125 145.378906 135.691406 143.605469 136.171875 C 143.097656 136.3125 140.875 136.96875 139.53125 138.703125 C 137.558594 141.25 137.875 145.570312 140.464844 149.277344 C 140.753906 148.785156 141.109375 148.023438 141.128906 147.074219 " fill-opacity="1" fill-rule="nonzero"/></g><path fill="#ffffff" d="M 186.601562 150.855469 C 185.183594 149.773438 183.773438 148.667969 182.402344 147.511719 L 180.585938 150.28125 C 181.933594 150.949219 183.253906 151.65625 184.5625 152.378906 C 185.230469 151.886719 185.90625 151.378906 186.601562 150.855469 " fill-opacity="1" fill-rule="nonzero"/><path fill="#ffffff" d="M 157.125 173.964844 C 157.273438 173.847656 161.234375 171.066406 161.386719 170.949219 C 161.425781 170.011719 161.433594 169.191406 161.421875 168.503906 C 161.164062 168.652344 157.09375 171.464844 156.835938 171.613281 C 156.949219 172.417969 157.042969 173.203125 157.125 173.964844 " fill-opacity="1" fill-rule="nonzero"/><path fill="#ffffff" d="M 213.457031 171.15625 C 213.660156 171.3125 216.976562 173.515625 217.175781 173.671875 C 217.308594 172.851562 217.449219 172.058594 217.59375 171.296875 C 217.277344 171.121094 213.847656 168.898438 213.535156 168.722656 C 213.523438 168.9375 213.511719 169.148438 213.503906 169.363281 C 213.476562 169.976562 213.460938 170.574219 213.457031 171.15625 " fill-opacity="1" fill-rule="nonzero"/><path fill="#ffffff" d="M 193.984375 150.28125 L 192.167969 147.511719 C 190.640625 148.800781 189.070312 150.019531 187.488281 151.226562 C 185.902344 152.425781 184.300781 153.605469 182.683594 154.757812 C 179.457031 157.074219 176.175781 159.304688 172.855469 161.480469 C 170.816406 162.816406 168.761719 164.128906 166.679688 165.40625 C 166.761719 165.910156 166.832031 166.40625 166.898438 166.894531 C 169.066406 165.367188 171.261719 163.882812 173.476562 162.429688 C 176.796875 160.253906 180.148438 158.128906 183.558594 156.09375 C 185.261719 155.070312 186.980469 154.074219 188.714844 153.097656 C 190.449219 152.125 192.195312 151.167969 193.984375 150.28125 " fill-opacity="1" fill-rule="nonzero"/><path fill="#ffffff" d="M 208.988281 166.070312 C 206.53125 164.589844 204.113281 163.054688 201.714844 161.480469 C 198.398438 159.304688 195.113281 157.074219 191.886719 154.757812 C 191.238281 154.296875 190.59375 153.828125 189.949219 153.355469 C 189.664062 153.515625 189.386719 153.667969 189.117188 153.820312 C 188.78125 154.011719 188.445312 154.199219 188.117188 154.386719 C 189.085938 154.949219 190.054688 155.515625 191.011719 156.09375 C 194.421875 158.128906 197.773438 160.253906 201.09375 162.429688 C 203.660156 164.109375 206.199219 165.832031 208.699219 167.621094 C 208.792969 167.089844 208.890625 166.574219 208.988281 166.070312 " fill-opacity="1" fill-rule="nonzero"/><g fill="#ffffff" fill-opacity="1"><g transform="translate(122.622732, 228.004907)"><g><path d="M 6.265625 0.171875 C 5.171875 0.171875 4.207031 -0.0078125 3.375 -0.375 C 2.550781 -0.738281 1.914062 -1.25 1.46875 -1.90625 C 1.019531 -2.5625 0.796875 -3.332031 0.796875 -4.21875 L 0.796875 -4.578125 C 0.796875 -4.816406 0.914062 -4.9375 1.15625 -4.9375 L 3.359375 -4.9375 C 3.597656 -4.9375 3.71875 -4.84375 3.71875 -4.65625 L 3.71875 -4.375 C 3.71875 -3.8125 3.972656 -3.335938 4.484375 -2.953125 C 4.992188 -2.566406 5.660156 -2.375 6.484375 -2.375 C 7.234375 -2.375 7.785156 -2.53125 8.140625 -2.84375 C 8.492188 -3.15625 8.671875 -3.546875 8.671875 -4.015625 C 8.671875 -4.347656 8.554688 -4.628906 8.328125 -4.859375 C 8.109375 -5.085938 7.804688 -5.289062 7.421875 -5.46875 C 7.046875 -5.644531 6.441406 -5.882812 5.609375 -6.1875 C 4.648438 -6.507812 3.847656 -6.835938 3.203125 -7.171875 C 2.566406 -7.515625 2.023438 -7.972656 1.578125 -8.546875 C 1.128906 -9.128906 0.90625 -9.847656 0.90625 -10.703125 C 0.90625 -11.546875 1.117188 -12.28125 1.546875 -12.90625 C 1.984375 -13.539062 2.585938 -14.023438 3.359375 -14.359375 C 4.140625 -14.703125 5.03125 -14.875 6.03125 -14.875 C 7.09375 -14.875 8.039062 -14.679688 8.875 -14.296875 C 9.71875 -13.921875 10.375 -13.394531 10.84375 -12.71875 C 11.3125 -12.039062 11.546875 -11.253906 11.546875 -10.359375 L 11.546875 -10.140625 C 11.546875 -9.898438 11.425781 -9.78125 11.1875 -9.78125 L 8.984375 -9.78125 C 8.742188 -9.78125 8.625 -9.851562 8.625 -10 L 8.625 -10.203125 C 8.625 -10.796875 8.382812 -11.296875 7.90625 -11.703125 C 7.425781 -12.117188 6.765625 -12.328125 5.921875 -12.328125 C 5.242188 -12.328125 4.722656 -12.1875 4.359375 -11.90625 C 4.003906 -11.625 3.828125 -11.238281 3.828125 -10.75 C 3.828125 -10.40625 3.929688 -10.113281 4.140625 -9.875 C 4.347656 -9.632812 4.664062 -9.414062 5.09375 -9.21875 C 5.519531 -9.019531 6.179688 -8.769531 7.078125 -8.46875 C 8.054688 -8.101562 8.832031 -7.78125 9.40625 -7.5 C 9.976562 -7.226562 10.492188 -6.8125 10.953125 -6.25 C 11.410156 -5.695312 11.640625 -4.976562 11.640625 -4.09375 C 11.640625 -3.238281 11.414062 -2.488281 10.96875 -1.84375 C 10.53125 -1.195312 9.90625 -0.695312 9.09375 -0.34375 C 8.289062 0 7.347656 0.171875 6.265625 0.171875 Z M 6.265625 0.171875 "/></g></g></g><g fill="#ffffff" fill-opacity="1"><g transform="translate(135.05478, 228.004907)"><g><path d="M 1.640625 0 C 1.398438 0 1.28125 -0.117188 1.28125 -0.359375 L 1.28125 -14.34375 C 1.28125 -14.582031 1.398438 -14.703125 1.640625 -14.703125 L 3.890625 -14.703125 C 4.117188 -14.703125 4.234375 -14.582031 4.234375 -14.34375 L 4.234375 -0.359375 C 4.234375 -0.117188 4.117188 0 3.890625 0 Z M 1.640625 0 "/></g></g></g><g fill="#ffffff" fill-opacity="1"><g transform="translate(140.577802, 228.004907)"><g><path d="M 1.640625 0 C 1.398438 0 1.28125 -0.117188 1.28125 -0.359375 L 1.28125 -14.34375 C 1.28125 -14.582031 1.398438 -14.703125 1.640625 -14.703125 L 3.890625 -14.703125 C 4.117188 -14.703125 4.234375 -14.582031 4.234375 -14.34375 L 4.234375 -2.671875 C 4.234375 -2.585938 4.28125 -2.546875 4.375 -2.546875 L 11.109375 -2.546875 C 11.347656 -2.546875 11.46875 -2.425781 11.46875 -2.1875 L 11.46875 -0.359375 C 11.46875 -0.117188 11.347656 0 11.109375 0 Z M 1.640625 0 "/></g></g></g><g fill="#ffffff" fill-opacity="1"><g transform="translate(152.589851, 228.004907)"><g><path d="M 11.484375 -12.515625 C 11.484375 -12.273438 11.363281 -12.15625 11.125 -12.15625 L 4.375 -12.15625 C 4.28125 -12.15625 4.234375 -12.113281 4.234375 -12.03125 L 4.234375 -8.8125 C 4.234375 -8.726562 4.28125 -8.6875 4.375 -8.6875 L 8.75 -8.6875 C 8.988281 -8.6875 9.109375 -8.570312 9.109375 -8.34375 L 9.109375 -6.515625 C 9.109375 -6.273438 8.988281 -6.15625 8.75 -6.15625 L 4.375 -6.15625 C 4.28125 -6.15625 4.234375 -6.113281 4.234375 -6.03125 L 4.234375 -2.671875 C 4.234375 -2.585938 4.28125 -2.546875 4.375 -2.546875 L 11.125 -2.546875 C 11.363281 -2.546875 11.484375 -2.425781 11.484375 -2.1875 L 11.484375 -0.359375 C 11.484375 -0.117188 11.363281 0 11.125 0 L 1.640625 0 C 1.398438 0 1.28125 -0.117188 1.28125 -0.359375 L 1.28125 -14.34375 C 1.28125 -14.582031 1.398438 -14.703125 1.640625 -14.703125 L 11.125 -14.703125 C 11.363281 -14.703125 11.484375 -14.582031 11.484375 -14.34375 Z M 11.484375 -12.515625 "/></g></g></g><g fill="#ffffff" fill-opacity="1"><g transform="translate(164.8539, 228.004907)"><g><path d="M 1.640625 0 C 1.398438 0 1.28125 -0.117188 1.28125 -0.359375 L 1.28125 -14.34375 C 1.28125 -14.582031 1.398438 -14.703125 1.640625 -14.703125 L 3.796875 -14.703125 C 3.984375 -14.703125 4.125 -14.625 4.21875 -14.46875 L 9.46875 -5.734375 C 9.5 -5.679688 9.53125 -5.660156 9.5625 -5.671875 C 9.601562 -5.679688 9.625 -5.71875 9.625 -5.78125 L 9.625 -14.34375 C 9.625 -14.582031 9.738281 -14.703125 9.96875 -14.703125 L 12.1875 -14.703125 C 12.414062 -14.703125 12.53125 -14.582031 12.53125 -14.34375 L 12.53125 -0.359375 C 12.53125 -0.117188 12.414062 0 12.1875 0 L 10.03125 0 C 9.863281 0 9.726562 -0.0820312 9.625 -0.25 L 4.34375 -9.078125 C 4.320312 -9.128906 4.289062 -9.144531 4.25 -9.125 C 4.21875 -9.113281 4.203125 -9.082031 4.203125 -9.03125 L 4.21875 -0.359375 C 4.21875 -0.117188 4.097656 0 3.859375 0 Z M 1.640625 0 "/></g></g></g><g fill="#ffffff" fill-opacity="1"><g transform="translate(178.671953, 228.004907)"><g><path d="M 11.3125 -14.703125 C 11.550781 -14.703125 11.671875 -14.582031 11.671875 -14.34375 L 11.671875 -12.5 C 11.671875 -12.257812 11.550781 -12.140625 11.3125 -12.140625 L 7.6875 -12.140625 C 7.601562 -12.140625 7.5625 -12.097656 7.5625 -12.015625 L 7.5625 -0.359375 C 7.5625 -0.117188 7.441406 0 7.203125 0 L 4.953125 0 C 4.710938 0 4.59375 -0.117188 4.59375 -0.359375 L 4.59375 -12.015625 C 4.59375 -12.097656 4.550781 -12.140625 4.46875 -12.140625 L 0.9375 -12.140625 C 0.707031 -12.140625 0.59375 -12.257812 0.59375 -12.5 L 0.59375 -14.34375 C 0.59375 -14.582031 0.707031 -14.703125 0.9375 -14.703125 Z M 11.3125 -14.703125 "/></g></g></g><g fill="#ffffff" fill-opacity="1"><g transform="translate(190.957002, 228.004907)"><g/></g></g><g fill="#ffffff" fill-opacity="1"><g transform="translate(195.157018, 228.004907)"><g><path d="M 4.5 0 C 4.269531 0 4.132812 -0.101562 4.09375 -0.3125 L 0.40625 -14.296875 C 0.382812 -14.328125 0.375 -14.363281 0.375 -14.40625 C 0.375 -14.601562 0.488281 -14.703125 0.71875 -14.703125 L 3.109375 -14.703125 C 3.316406 -14.703125 3.441406 -14.597656 3.484375 -14.390625 L 5.453125 -6 C 5.472656 -5.945312 5.503906 -5.921875 5.546875 -5.921875 C 5.585938 -5.921875 5.613281 -5.945312 5.625 -6 L 7.515625 -14.390625 C 7.554688 -14.597656 7.679688 -14.703125 7.890625 -14.703125 L 10.265625 -14.703125 C 10.492188 -14.703125 10.628906 -14.597656 10.671875 -14.390625 L 12.71875 -6 C 12.738281 -5.945312 12.765625 -5.921875 12.796875 -5.921875 C 12.835938 -5.921875 12.863281 -5.945312 12.875 -6 L 14.765625 -14.390625 C 14.804688 -14.597656 14.929688 -14.703125 15.140625 -14.703125 L 17.4375 -14.703125 C 17.5625 -14.703125 17.644531 -14.660156 17.6875 -14.578125 C 17.738281 -14.503906 17.75 -14.410156 17.71875 -14.296875 L 14.34375 -0.3125 C 14.300781 -0.101562 14.164062 0 13.9375 0 L 11.640625 0 C 11.410156 0 11.273438 -0.101562 11.234375 -0.3125 L 9.140625 -9.234375 C 9.117188 -9.296875 9.085938 -9.328125 9.046875 -9.328125 C 9.003906 -9.328125 8.976562 -9.296875 8.96875 -9.234375 L 7.015625 -0.3125 C 6.972656 -0.101562 6.847656 0 6.640625 0 Z M 4.5 0 "/></g></g></g><g fill="#ffffff" fill-opacity="1"><g transform="translate(213.280086, 228.004907)"><g><path d="M 10.734375 0 C 10.535156 0 10.398438 -0.0976562 10.328125 -0.296875 L 9.75 -2.25 C 9.726562 -2.320312 9.6875 -2.359375 9.625 -2.359375 L 4.46875 -2.359375 C 4.40625 -2.359375 4.363281 -2.320312 4.34375 -2.25 L 3.765625 -0.296875 C 3.691406 -0.0976562 3.554688 0 3.359375 0 L 0.921875 0 C 0.796875 0 0.703125 -0.0351562 0.640625 -0.109375 C 0.585938 -0.191406 0.582031 -0.289062 0.625 -0.40625 L 5.109375 -14.40625 C 5.171875 -14.601562 5.300781 -14.703125 5.5 -14.703125 L 8.59375 -14.703125 C 8.789062 -14.703125 8.921875 -14.601562 8.984375 -14.40625 L 13.46875 -0.40625 C 13.476562 -0.375 13.484375 -0.328125 13.484375 -0.265625 C 13.484375 -0.179688 13.453125 -0.113281 13.390625 -0.0625 C 13.335938 -0.0195312 13.265625 0 13.171875 0 Z M 5.078125 -4.78125 C 5.066406 -4.6875 5.101562 -4.640625 5.1875 -4.640625 L 8.90625 -4.640625 C 8.988281 -4.640625 9.023438 -4.6875 9.015625 -4.78125 L 7.125 -11.1875 C 7.101562 -11.25 7.078125 -11.28125 7.046875 -11.28125 C 7.015625 -11.28125 6.984375 -11.25 6.953125 -11.1875 Z M 5.078125 -4.78125 "/></g></g></g><g fill="#ffffff" fill-opacity="1"><g transform="translate(227.371138, 228.004907)"><g><path d="M 1.640625 0 C 1.398438 0 1.28125 -0.117188 1.28125 -0.359375 L 1.28125 -14.34375 C 1.28125 -14.582031 1.398438 -14.703125 1.640625 -14.703125 L 3.890625 -14.703125 C 4.117188 -14.703125 4.234375 -14.582031 4.234375 -14.34375 L 4.234375 -2.671875 C 4.234375 -2.585938 4.28125 -2.546875 4.375 -2.546875 L 11.109375 -2.546875 C 11.347656 -2.546875 11.46875 -2.425781 11.46875 -2.1875 L 11.46875 -0.359375 C 11.46875 -0.117188 11.347656 0 11.109375 0 Z M 1.640625 0 "/></g></g></g><g fill="#ffffff" fill-opacity="1"><g transform="translate(239.383188, 228.004907)"><g><path d="M 1.640625 0 C 1.398438 0 1.28125 -0.117188 1.28125 -0.359375 L 1.28125 -14.34375 C 1.28125 -14.582031 1.398438 -14.703125 1.640625 -14.703125 L 6.78125 -14.703125 C 7.832031 -14.703125 8.753906 -14.515625 9.546875 -14.140625 C 10.335938 -13.773438 10.945312 -13.253906 11.375 -12.578125 C 11.8125 -11.910156 12.03125 -11.132812 12.03125 -10.25 L 12.03125 -4.453125 C 12.03125 -3.566406 11.8125 -2.785156 11.375 -2.109375 C 10.945312 -1.441406 10.335938 -0.921875 9.546875 -0.546875 C 8.753906 -0.179688 7.832031 0 6.78125 0 Z M 4.234375 -2.671875 C 4.234375 -2.585938 4.28125 -2.546875 4.375 -2.546875 L 6.890625 -2.546875 C 7.535156 -2.546875 8.054688 -2.757812 8.453125 -3.1875 C 8.847656 -3.625 9.054688 -4.207031 9.078125 -4.9375 L 9.078125 -9.765625 C 9.078125 -10.492188 8.875 -11.070312 8.46875 -11.5 C 8.070312 -11.9375 7.535156 -12.15625 6.859375 -12.15625 L 4.375 -12.15625 C 4.28125 -12.15625 4.234375 -12.113281 4.234375 -12.03125 Z M 4.234375 -2.671875 "/></g></g></g><g fill="#ffffff" fill-opacity="1"><g transform="translate(163.933887, 245.054881)"><g><path d="M 6.5625 0 C 6.46875 0 6.398438 -0.0390625 6.359375 -0.125 L 4.453125 -4.140625 C 4.441406 -4.171875 4.414062 -4.1875 4.375 -4.1875 L 2.203125 -4.1875 C 2.160156 -4.1875 2.140625 -4.164062 2.140625 -4.125 L 2.140625 -0.171875 C 2.140625 -0.0546875 2.082031 0 1.96875 0 L 1.390625 0 C 1.273438 0 1.21875 -0.0546875 1.21875 -0.171875 L 1.21875 -8.9375 C 1.21875 -9.050781 1.273438 -9.109375 1.390625 -9.109375 L 4.71875 -9.109375 C 5.46875 -9.109375 6.070312 -8.878906 6.53125 -8.421875 C 6.988281 -7.960938 7.21875 -7.359375 7.21875 -6.609375 C 7.21875 -6.003906 7.050781 -5.492188 6.71875 -5.078125 C 6.394531 -4.660156 5.953125 -4.382812 5.390625 -4.25 C 5.347656 -4.238281 5.335938 -4.210938 5.359375 -4.171875 L 7.296875 -0.1875 C 7.304688 -0.15625 7.3125 -0.128906 7.3125 -0.109375 C 7.3125 -0.0351562 7.257812 0 7.15625 0 Z M 2.203125 -8.3125 C 2.160156 -8.3125 2.140625 -8.285156 2.140625 -8.234375 L 2.140625 -4.984375 C 2.140625 -4.941406 2.160156 -4.921875 2.203125 -4.921875 L 4.609375 -4.921875 C 5.117188 -4.921875 5.53125 -5.070312 5.84375 -5.375 C 6.15625 -5.6875 6.3125 -6.097656 6.3125 -6.609375 C 6.3125 -7.109375 6.15625 -7.515625 5.84375 -7.828125 C 5.53125 -8.148438 5.117188 -8.3125 4.609375 -8.3125 Z M 2.203125 -8.3125 "/></g></g></g><g fill="#ffffff" fill-opacity="1"><g transform="translate(171.93945, 245.054881)"><g><path d="M 7.109375 -8.46875 C 7.109375 -8.351562 7.050781 -8.296875 6.9375 -8.296875 L 2.203125 -8.296875 C 2.160156 -8.296875 2.140625 -8.273438 2.140625 -8.234375 L 2.140625 -5.046875 C 2.140625 -5.003906 2.160156 -4.984375 2.203125 -4.984375 L 5.515625 -4.984375 C 5.628906 -4.984375 5.6875 -4.925781 5.6875 -4.8125 L 5.6875 -4.34375 C 5.6875 -4.226562 5.628906 -4.171875 5.515625 -4.171875 L 2.203125 -4.171875 C 2.160156 -4.171875 2.140625 -4.148438 2.140625 -4.109375 L 2.140625 -0.875 C 2.140625 -0.832031 2.160156 -0.8125 2.203125 -0.8125 L 6.9375 -0.8125 C 7.050781 -0.8125 7.109375 -0.753906 7.109375 -0.640625 L 7.109375 -0.171875 C 7.109375 -0.0546875 7.050781 0 6.9375 0 L 1.390625 0 C 1.273438 0 1.21875 -0.0546875 1.21875 -0.171875 L 1.21875 -8.9375 C 1.21875 -9.039062 1.273438 -9.09375 1.390625 -9.09375 L 6.9375 -9.09375 C 7.050781 -9.09375 7.109375 -9.039062 7.109375 -8.9375 Z M 7.109375 -8.46875 "/></g></g></g><g fill="#ffffff" fill-opacity="1"><g transform="translate(179.854044, 245.054881)"><g><path d="M 3.875 0.109375 C 3.238281 0.109375 2.6875 0.0078125 2.21875 -0.1875 C 1.75 -0.394531 1.382812 -0.679688 1.125 -1.046875 C 0.863281 -1.410156 0.734375 -1.835938 0.734375 -2.328125 L 0.734375 -2.6875 C 0.734375 -2.800781 0.789062 -2.859375 0.90625 -2.859375 L 1.46875 -2.859375 C 1.582031 -2.859375 1.640625 -2.800781 1.640625 -2.6875 L 1.640625 -2.375 C 1.640625 -1.882812 1.847656 -1.484375 2.265625 -1.171875 C 2.679688 -0.859375 3.238281 -0.703125 3.9375 -0.703125 C 4.601562 -0.703125 5.109375 -0.84375 5.453125 -1.125 C 5.804688 -1.40625 5.984375 -1.78125 5.984375 -2.25 C 5.984375 -2.550781 5.898438 -2.8125 5.734375 -3.03125 C 5.578125 -3.25 5.332031 -3.453125 5 -3.640625 C 4.675781 -3.828125 4.207031 -4.046875 3.59375 -4.296875 C 2.9375 -4.554688 2.425781 -4.785156 2.0625 -4.984375 C 1.707031 -5.179688 1.421875 -5.429688 1.203125 -5.734375 C 0.984375 -6.046875 0.875 -6.4375 0.875 -6.90625 C 0.875 -7.632812 1.125 -8.195312 1.625 -8.59375 C 2.132812 -9 2.835938 -9.203125 3.734375 -9.203125 C 4.679688 -9.203125 5.429688 -8.976562 5.984375 -8.53125 C 6.546875 -8.082031 6.828125 -7.484375 6.828125 -6.734375 L 6.828125 -6.484375 C 6.828125 -6.367188 6.769531 -6.3125 6.65625 -6.3125 L 6.078125 -6.3125 C 5.972656 -6.3125 5.921875 -6.367188 5.921875 -6.484375 L 5.921875 -6.6875 C 5.921875 -7.1875 5.722656 -7.59375 5.328125 -7.90625 C 4.941406 -8.226562 4.390625 -8.390625 3.671875 -8.390625 C 3.054688 -8.390625 2.585938 -8.265625 2.265625 -8.015625 C 1.941406 -7.765625 1.78125 -7.398438 1.78125 -6.921875 C 1.78125 -6.617188 1.859375 -6.363281 2.015625 -6.15625 C 2.179688 -5.945312 2.410156 -5.765625 2.703125 -5.609375 C 3.003906 -5.460938 3.460938 -5.269531 4.078125 -5.03125 C 4.710938 -4.769531 5.222656 -4.523438 5.609375 -4.296875 C 6.003906 -4.078125 6.316406 -3.800781 6.546875 -3.46875 C 6.785156 -3.144531 6.90625 -2.75 6.90625 -2.28125 C 6.90625 -1.5625 6.632812 -0.984375 6.09375 -0.546875 C 5.5625 -0.109375 4.820312 0.109375 3.875 0.109375 Z M 3.875 0.109375 "/></g></g></g><g fill="#ffffff" fill-opacity="1"><g transform="translate(187.52171, 245.054881)"><g><path d="M 4.03125 0.109375 C 3.414062 0.109375 2.875 -0.015625 2.40625 -0.265625 C 1.9375 -0.523438 1.570312 -0.878906 1.3125 -1.328125 C 1.0625 -1.785156 0.9375 -2.3125 0.9375 -2.90625 L 0.9375 -6.1875 C 0.9375 -6.78125 1.0625 -7.304688 1.3125 -7.765625 C 1.570312 -8.222656 1.9375 -8.578125 2.40625 -8.828125 C 2.875 -9.078125 3.414062 -9.203125 4.03125 -9.203125 C 4.644531 -9.203125 5.1875 -9.078125 5.65625 -8.828125 C 6.132812 -8.578125 6.5 -8.222656 6.75 -7.765625 C 7.007812 -7.304688 7.140625 -6.78125 7.140625 -6.1875 L 7.140625 -2.90625 C 7.140625 -2.3125 7.007812 -1.785156 6.75 -1.328125 C 6.5 -0.878906 6.132812 -0.523438 5.65625 -0.265625 C 5.1875 -0.015625 4.644531 0.109375 4.03125 0.109375 Z M 4.03125 -0.6875 C 4.6875 -0.6875 5.210938 -0.882812 5.609375 -1.28125 C 6.015625 -1.6875 6.21875 -2.21875 6.21875 -2.875 L 6.21875 -6.203125 C 6.21875 -6.859375 6.015625 -7.382812 5.609375 -7.78125 C 5.210938 -8.1875 4.6875 -8.390625 4.03125 -8.390625 C 3.382812 -8.390625 2.859375 -8.1875 2.453125 -7.78125 C 2.054688 -7.382812 1.859375 -6.859375 1.859375 -6.203125 L 1.859375 -2.875 C 1.859375 -2.21875 2.054688 -1.6875 2.453125 -1.28125 C 2.859375 -0.882812 3.382812 -0.6875 4.03125 -0.6875 Z M 4.03125 -0.6875 "/></g></g></g><g fill="#ffffff" fill-opacity="1"><g transform="translate(195.657231, 245.054881)"><g><path d="M 6.5625 0 C 6.46875 0 6.398438 -0.0390625 6.359375 -0.125 L 4.453125 -4.140625 C 4.441406 -4.171875 4.414062 -4.1875 4.375 -4.1875 L 2.203125 -4.1875 C 2.160156 -4.1875 2.140625 -4.164062 2.140625 -4.125 L 2.140625 -0.171875 C 2.140625 -0.0546875 2.082031 0 1.96875 0 L 1.390625 0 C 1.273438 0 1.21875 -0.0546875 1.21875 -0.171875 L 1.21875 -8.9375 C 1.21875 -9.050781 1.273438 -9.109375 1.390625 -9.109375 L 4.71875 -9.109375 C 5.46875 -9.109375 6.070312 -8.878906 6.53125 -8.421875 C 6.988281 -7.960938 7.21875 -7.359375 7.21875 -6.609375 C 7.21875 -6.003906 7.050781 -5.492188 6.71875 -5.078125 C 6.394531 -4.660156 5.953125 -4.382812 5.390625 -4.25 C 5.347656 -4.238281 5.335938 -4.210938 5.359375 -4.171875 L 7.296875 -0.1875 C 7.304688 -0.15625 7.3125 -0.128906 7.3125 -0.109375 C 7.3125 -0.0351562 7.257812 0 7.15625 0 Z M 2.203125 -8.3125 C 2.160156 -8.3125 2.140625 -8.285156 2.140625 -8.234375 L 2.140625 -4.984375 C 2.140625 -4.941406 2.160156 -4.921875 2.203125 -4.921875 L 4.609375 -4.921875 C 5.117188 -4.921875 5.53125 -5.070312 5.84375 -5.375 C 6.15625 -5.6875 6.3125 -6.097656 6.3125 -6.609375 C 6.3125 -7.109375 6.15625 -7.515625 5.84375 -7.828125 C 5.53125 -8.148438 5.117188 -8.3125 4.609375 -8.3125 Z M 2.203125 -8.3125 "/></g></g></g><g fill="#ffffff" fill-opacity="1"><g transform="translate(203.662793, 245.054881)"><g><path d="M 6.671875 -9.09375 C 6.785156 -9.09375 6.84375 -9.039062 6.84375 -8.9375 L 6.84375 -8.453125 C 6.84375 -8.335938 6.785156 -8.28125 6.671875 -8.28125 L 4.171875 -8.28125 C 4.128906 -8.28125 4.109375 -8.257812 4.109375 -8.21875 L 4.109375 -0.171875 C 4.109375 -0.0546875 4.050781 0 3.9375 0 L 3.359375 0 C 3.242188 0 3.1875 -0.0546875 3.1875 -0.171875 L 3.1875 -8.21875 C 3.1875 -8.257812 3.164062 -8.28125 3.125 -8.28125 L 0.734375 -8.28125 C 0.617188 -8.28125 0.5625 -8.335938 0.5625 -8.453125 L 0.5625 -8.9375 C 0.5625 -9.039062 0.617188 -9.09375 0.734375 -9.09375 Z M 6.671875 -9.09375 "/></g></g></g></svg>